<svg width="687" height="680" viewBox="0 0 687 680" fill="none" xmlns="http://www.w3.org/2000/svg">
<g filter="url(#filter0_dii)">
<path d="M549.1 289C565.061 289 578.15 276.028 576.556 260.147C571.844 213.183 555.68 167.929 529.295 128.44C497.539 80.9144 452.403 43.8725 399.596 21.9988C346.788 0.125089 288.679 -5.59807 232.619 5.55305C176.558 16.7042 125.064 44.2288 84.6461 84.6461C44.2288 125.064 16.7042 176.558 5.55305 232.619C-5.59807 288.679 0.12509 346.788 21.9988 399.596C43.8725 452.403 80.9144 497.539 128.44 529.295C167.929 555.68 213.183 571.844 260.147 576.556C276.028 578.15 289 565.061 289 549.1C289 533.139 276.011 520.386 260.174 518.396C224.662 513.934 190.531 501.267 160.552 481.236C122.532 455.831 92.898 419.723 75.3991 377.476C57.9001 335.23 53.3215 288.744 62.2424 243.895C71.1633 199.047 93.183 157.851 125.517 125.517C157.851 93.183 199.047 71.1634 243.895 62.2424C288.744 53.3215 335.23 57.9001 377.476 75.3991C419.723 92.898 455.831 122.532 481.236 160.552C501.267 190.531 513.934 224.662 518.396 260.174C520.386 276.011 533.139 289 549.1 289Z" fill="url(#paint0_linear)"/>
</g>
<defs>
<filter id="filter0_dii" x="-4.00013" y="-4.00014" width="690.688" height="683.688" filterUnits="userSpaceOnUse" color-interpolation-filters="sRGB">
<feFlood flood-opacity="0" result="BackgroundImageFix"/>
<feColorMatrix in="SourceAlpha" type="matrix" values="0 0 0 0 0 0 0 0 0 0 0 0 0 0 0 0 0 0 127 0"/>
<feOffset dx="85" dy="78"/>
<feGaussianBlur stdDeviation="12.5"/>
<feColorMatrix type="matrix" values="0 0 0 0 0.519444 0 0 0 0 0.572333 0 0 0 0 0.708333 0 0 0 0.63 0"/>
<feBlend mode="normal" in2="BackgroundImageFix" result="effect1_dropShadow"/>
<feBlend mode="normal" in="SourceGraphic" in2="effect1_dropShadow" result="shape"/>
<feColorMatrix in="SourceAlpha" type="matrix" values="0 0 0 0 0 0 0 0 0 0 0 0 0 0 0 0 0 0 127 0" result="hardAlpha"/>
<feOffset dx="4" dy="4"/>
<feGaussianBlur stdDeviation="12.5"/>
<feComposite in2="hardAlpha" operator="arithmetic" k2="-1" k3="1"/>
<feColorMatrix type="matrix" values="0 0 0 0 1 0 0 0 0 1 0 0 0 0 1 0 0 0 0.44 0"/>
<feBlend mode="normal" in2="shape" result="effect2_innerShadow"/>
<feColorMatrix in="SourceAlpha" type="matrix" values="0 0 0 0 0 0 0 0 0 0 0 0 0 0 0 0 0 0 127 0" result="hardAlpha"/>
<feOffset dx="-4" dy="-4"/>
<feGaussianBlur stdDeviation="12.5"/>
<feComposite in2="hardAlpha" operator="arithmetic" k2="-1" k3="1"/>
<feColorMatrix type="matrix" values="0 0 0 0 0.408333 0 0 0 0 0.574 0 0 0 0 1 0 0 0 1 0"/>
<feBlend mode="normal" in2="effect2_innerShadow" result="effect3_innerShadow"/>
</filter>
<linearGradient id="paint0_linear" x1="289" y1="0" x2="289" y2="578" gradientUnits="userSpaceOnUse">
<stop stop-color="#A7C0FF"/>
<stop offset="1" stop-color="#B6CAFF"/>
</linearGradient>
</defs>
</svg>
